<svg xmlns="http://www.w3.org/2000/svg" xmlns:xlink="http://www.w3.org/1999/xlink" width="0" height="0" style="display:none;"><symbol viewBox="0 0 24 24" id="font-size-2"><path d="M10 6V21H8V6H2V4H16V6H10ZM18 14V21H16V14H13V12H21V14H18Z"></path></symbol><symbol viewBox="0 0 24 24" id="bold"><path d="M8 11H12.5C13.8807 11 15 9.88071 15 8.5C15 7.11929 13.8807 6 12.5 6H8V11ZM18 15.5C18 17.9853 15.9853 20 13.5 20H6V4H12.5C14.9853 4 17 6.01472 17 8.5C17 9.70431 16.5269 10.7981 15.7564 11.6058C17.0979 12.3847 18 13.837 18 15.5ZM8 13V18H13.5C14.8807 18 16 16.8807 16 15.5C16 14.1193 14.8807 13 13.5 13H8Z"></path></symbol><symbol viewBox="0 0 24 24" id="italic"><path d="M15 20H7V18H9.92661L12.0425 6H9V4H17V6H14.0734L11.9575 18H15V20Z"></path></symbol><symbol viewBox="0 0 24 24" id="underline"><path d="M8 3V12C8 14.2091 9.79086 16 12 16C14.2091 16 16 14.2091 16 12V3H18V12C18 15.3137 15.3137 18 12 18C8.68629 18 6 15.3137 6 12V3H8ZM4 20H20V22H4V20Z"></path></symbol><symbol viewBox="0 0 24 24" id="strikethrough"><path d="M17.1538 14C17.3846 14.5161 17.5 15.0893 17.5 15.7196C17.5 17.0625 16.9762 18.1116 15.9286 18.867C14.8809 19.6223 13.4335 20 11.5862 20C9.94674 20 8.32335 19.6185 6.71592 18.8555V16.6009C8.23538 17.4783 9.7908 17.917 11.3822 17.917C13.9333 17.917 15.2128 17.1846 15.2208 15.7196C15.2208 15.0939 15.0049 14.5598 14.5731 14.1173C14.5339 14.0772 14.4939 14.0381 14.4531 14H3V12H21V14H17.1538ZM13.076 11H7.62908C7.4566 10.8433 7.29616 10.6692 7.14776 10.4778C6.71592 9.92084 6.5 9.24559 6.5 8.45207C6.5 7.21602 6.96583 6.165 7.89749 5.299C8.82916 4.43299 10.2706 4 12.2219 4C13.6934 4 15.1009 4.32808 16.4444 4.98426V7.13591C15.2448 6.44921 13.9293 6.10587 12.4978 6.10587C10.0187 6.10587 8.77917 6.88793 8.77917 8.45207C8.77917 8.87172 8.99709 9.23796 9.43293 9.55079C9.86878 9.86362 10.4066 10.1135 11.0463 10.3004C11.6665 10.4816 12.3431 10.7148 13.076 11H13.076Z"></path></symbol><symbol viewBox="0 0 24 24" id="list-ordered"><path d="M8 4H21V6H8V4ZM5 3V6H6V7H3V6H4V4H3V3H5ZM3 14V11.5H5V11H3V10H6V12.5H4V13H6V14H3ZM5 19.5H3V18.5H5V18H3V17H6V21H3V20H5V19.5ZM8 11H21V13H8V11ZM8 18H21V20H8V18Z"></path></symbol><symbol viewBox="0 0 24 24" id="list-unordered"><path d="M8 4H21V6H8V4ZM4.5 6.5C3.67157 6.5 3 5.82843 3 5C3 4.17157 3.67157 3.5 4.5 3.5C5.32843 3.5 6 4.17157 6 5C6 5.82843 5.32843 6.5 4.5 6.5ZM4.5 13.5C3.67157 13.5 3 12.8284 3 12C3 11.1716 3.67157 10.5 4.5 10.5C5.32843 10.5 6 11.1716 6 12C6 12.8284 5.32843 13.5 4.5 13.5ZM4.5 20.4C3.67157 20.4 3 19.7284 3 18.9C3 18.0716 3.67157 17.4 4.5 17.4C5.32843 17.4 6 18.0716 6 18.9C6 19.7284 5.32843 20.4 4.5 20.4ZM8 11H21V13H8V11ZM8 18H21V20H8V18Z"></path></symbol><symbol viewBox="0 0 24 24" id="text-wrap"><path d="M15 18H16.5C17.8807 18 19 16.8807 19 15.5C19 14.1193 17.8807 13 16.5 13H3V11H16.5C18.9853 11 21 13.0147 21 15.5C21 17.9853 18.9853 20 16.5 20H15V22L11 19L15 16V18ZM3 4H21V6H3V4ZM9 18V20H3V18H9Z"></path></symbol><symbol viewBox="0 0 24 24" id="link"><path d="M18.3643 15.5353L16.95 14.1211L18.3643 12.7069C20.3169 10.7543 20.3169 7.58847 18.3643 5.63585C16.4116 3.68323 13.2458 3.68323 11.2932 5.63585L9.87898 7.05007L8.46477 5.63585L9.87898 4.22164C12.6127 1.48797 17.0448 1.48797 19.7785 4.22164C22.5121 6.95531 22.5121 11.3875 19.7785 14.1211L18.3643 15.5353ZM15.5358 18.3638L14.1216 19.778C11.388 22.5117 6.9558 22.5117 4.22213 19.778C1.48846 17.0443 1.48846 12.6122 4.22213 9.87849L5.63634 8.46428L7.05055 9.87849L5.63634 11.2927C3.68372 13.2453 3.68372 16.4112 5.63634 18.3638C7.58896 20.3164 10.7548 20.3164 12.7074 18.3638L14.1216 16.9496L15.5358 18.3638ZM14.8287 7.75717L16.2429 9.17139L9.17187 16.2425L7.75766 14.8282L14.8287 7.75717Z"></path></symbol><symbol viewBox="0 0 24 24" id="double-quotes-r"><path d="M19.4167 6.67891C20.4469 7.77257 21.0001 9 21.0001 10.9897C21.0001 14.4891 18.5436 17.6263 14.9695 19.1768L14.0768 17.7992C17.4121 15.9946 18.0639 13.6539 18.3245 12.178C17.7875 12.4557 17.0845 12.5533 16.3954 12.4895C14.591 12.3222 13.1689 10.8409 13.1689 9C13.1689 7.067 14.7359 5.5 16.6689 5.5C17.742 5.5 18.7681 5.99045 19.4167 6.67891ZM9.41669 6.67891C10.4469 7.77257 11.0001 9 11.0001 10.9897C11.0001 14.4891 8.54359 17.6263 4.96951 19.1768L4.07682 17.7992C7.41206 15.9946 8.06392 13.6539 8.32447 12.178C7.78747 12.4557 7.08452 12.5533 6.39539 12.4895C4.59102 12.3222 3.16895 10.8409 3.16895 9C3.16895 7.067 4.73595 5.5 6.66895 5.5C7.742 5.5 8.76814 5.99045 9.41669 6.67891Z"></path></symbol><symbol viewBox="0 0 24 24" id="image-line"><path d="M2.9918 21C2.44405 21 2 20.5551 2 20.0066V3.9934C2 3.44476 2.45531 3 2.9918 3H21.0082C21.556 3 22 3.44495 22 3.9934V20.0066C22 20.5552 21.5447 21 21.0082 21H2.9918ZM20 15V5H4V19L14 9L20 15ZM20 17.8284L14 11.8284L6.82843 19H20V17.8284ZM8 11C6.89543 11 6 10.1046 6 9C6 7.89543 6.89543 7 8 7C9.10457 7 10 7.89543 10 9C10 10.1046 9.10457 11 8 11Z"></path></symbol><symbol viewBox="0 0 24 24" id="keyboard-line"><path d="M3 17H21V19H3V17ZM3 11H6V14H3V11ZM8 11H11V14H8V11ZM3 5H6V8H3V5ZM13 5H16V8H13V5ZM18 5H21V8H18V5ZM13 11H16V14H13V11ZM18 11H21V14H18V11ZM8 5H11V8H8V5Z"></path></symbol><symbol viewBox="0 0 24 24" id="fullscreen-line"><path d="M8 3V5H4V9H2V3H8ZM2 21V15H4V19H8V21H2ZM22 21H16V19H20V15H22V21ZM22 9H20V5H16V3H22V9Z"></path></symbol><symbol viewBox="0 0 24 24" id="fullscreen-exit-line"><path d="M18 7H22V9H16V3H18V7ZM8 9H2V7H6V3H8V9ZM18 17V21H16V15H22V17H18ZM8 15V21H6V17H2V15H8Z"></path></symbol><symbol viewBox="0 0 24 24" id="code-s-slash-line"><path d="M24 12L18.3431 17.6569L16.9289 16.2426L21.1716 12L16.9289 7.75736L18.3431 6.34315L24 12ZM2.82843 12L7.07107 16.2426L5.65685 17.6569L0 12L5.65685 6.34315L7.07107 7.75736L2.82843 12ZM9.78845 21H7.66009L14.2116 3H16.3399L9.78845 21Z"></path></symbol><symbol viewBox="0 0 24 24" id="code-s-line"><path d="M24 12.0001L18.3431 17.657L16.9289 16.2428L21.1716 12.0001L16.9289 7.75748L18.3431 6.34326L24 12.0001ZM2.82843 12.0001L7.07107 16.2428L5.65685 17.657L0 12.0001L5.65685 6.34326L7.07107 7.75748L2.82843 12.0001Z"></path></symbol><symbol viewBox="0 0 24 24" id="arrow-go-forward-line"><path d="M18.1716 6.99955H11C7.68629 6.99955 5 9.68584 5 12.9996C5 16.3133 7.68629 18.9996 11 18.9996H20V20.9996H11C6.58172 20.9996 3 17.4178 3 12.9996C3 8.58127 6.58172 4.99955 11 4.99955H18.1716L15.636 2.46402L17.0503 1.0498L22 5.99955L17.0503 10.9493L15.636 9.53509L18.1716 6.99955Z"></path></symbol><symbol viewBox="0 0 24 24" id="arrow-go-back-line"><path d="M5.82843 6.99955L8.36396 9.53509L6.94975 10.9493L2 5.99955L6.94975 1.0498L8.36396 2.46402L5.82843 4.99955H13C17.4183 4.99955 21 8.58127 21 12.9996C21 17.4178 17.4183 20.9996 13 20.9996H4V18.9996H13C16.3137 18.9996 19 16.3133 19 12.9996C19 9.68584 16.3137 6.99955 13 6.99955H5.82843Z"></path></symbol><symbol viewBox="0 0 24 24" id="eye-line"><path d="M12.0003 3C17.3924 3 21.8784 6.87976 22.8189 12C21.8784 17.1202 17.3924 21 12.0003 21C6.60812 21 2.12215 17.1202 1.18164 12C2.12215 6.87976 6.60812 3 12.0003 3ZM12.0003 19C16.2359 19 19.8603 16.052 20.7777 12C19.8603 7.94803 16.2359 5 12.0003 5C7.7646 5 4.14022 7.94803 3.22278 12C4.14022 16.052 7.7646 19 12.0003 19ZM12.0003 16.5C9.51498 16.5 7.50026 14.4853 7.50026 12C7.50026 9.51472 9.51498 7.5 12.0003 7.5C14.4855 7.5 16.5003 9.51472 16.5003 12C16.5003 14.4853 14.4855 16.5 12.0003 16.5ZM12.0003 14.5C13.381 14.5 14.5003 13.3807 14.5003 12C14.5003 10.6193 13.381 9.5 12.0003 9.5C10.6196 9.5 9.50026 10.6193 9.50026 12C9.50026 13.3807 10.6196 14.5 12.0003 14.5Z"></path></symbol><symbol viewBox="0 0 24 24" id="layout-column-line"><path d="M11 5H5V19H11V5ZM13 5V19H19V5H13ZM4 3H20C20.5523 3 21 3.44772 21 4V20C21 20.5523 20.5523 21 20 21H4C3.44772 21 3 20.5523 3 20V4C3 3.44772 3.44772 3 4 3Z"></path></symbol><symbol viewBox="0 0 24 24" id="indent-increase"><path d="M3 4H21V6H3V4ZM3 19H21V21H3V19ZM11 14H21V16H11V14ZM11 9H21V11H11V9ZM7 12.5L3 16V9L7 12.5Z"></path></symbol><symbol viewBox="0 0 24 24" id="delete-bin-7-line"><path d="M17 6H22V8H20V21C20 21.5523 19.5523 22 19 22H5C4.44772 22 4 21.5523 4 21V8H2V6H7V3C7 2.44772 7.44772 2 8 2H16C16.5523 2 17 2.44772 17 3V6ZM18 8H6V20H18V8ZM9 4V6H15V4H9Z"></path></symbol><symbol viewBox="0 0 24 24" id="grid-line"><path d="M14 10H10V14H14V10ZM16 10V14H19V10H16ZM14 19V16H10V19H14ZM16 19H19V16H16V19ZM14 5H10V8H14V5ZM16 5V8H19V5H16ZM8 10H5V14H8V10ZM8 19V16H5V19H8ZM8 5H5V8H8V5ZM4 3H20C20.5523 3 21 3.44772 21 4V20C21 20.5523 20.5523 21 20 21H4C3.44772 21 3 20.5523 3 20V4C3 3.44772 3.44772 3 4 3Z"></path></symbol><symbol viewBox="0 0 24 24" id="arrow-down-s-line"><path d="M11.9997 13.1714L16.9495 8.22168L18.3637 9.63589L11.9997 15.9999L5.63574 9.63589L7.04996 8.22168L11.9997 13.1714Z"></path></symbol><symbol viewBox="0 0 24 24" id="arrow-up-s-line"><path d="M11.9997 10.8284L7.04996 15.7782L5.63574 14.364L11.9997 8L18.3637 14.364L16.9495 15.7782L11.9997 10.8284Z"></path></symbol></svg>