<svg width="32" height="33" viewBox="0 0 32 33" fill="none" xmlns="http://www.w3.org/2000/svg">
<path fill-rule="evenodd" clip-rule="evenodd" d="M16.0002 0.5C24.8367 0.5 32 7.66335 32 16.4999C32 25.3364 24.8367 32.5 16.0002 32.5C7.16334 32.5 0 25.3364 0 16.4999C0 7.66335 7.16334 0.5 16.0002 0.5" fill="#627EEA"/>
<path fill-rule="evenodd" clip-rule="evenodd" d="M15.9998 4.62714L8.5332 16.8293L15.9998 21.0686L23.5157 16.8293L15.9998 4.62714Z" fill="white"/>
<path fill-rule="evenodd" clip-rule="evenodd" d="M16 4.62714V21.0686L23.5159 16.8293L16 4.62714Z" fill="#C0CBF6"/>
<path fill-rule="evenodd" clip-rule="evenodd" d="M15.9998 13.498L8.5332 16.8294L15.9998 21.0684L23.5157 16.8294L15.9998 13.498Z" fill="#C0CBF6"/>
<path fill-rule="evenodd" clip-rule="evenodd" d="M16 13.498V21.0684L23.5159 16.8294L16 13.498Z" fill="#8197EE"/>
<path fill-rule="evenodd" clip-rule="evenodd" d="M16.0246 28.3757L8.5332 18.4295L15.9998 22.6689L23.5161 18.4295L16.0246 28.3757Z" fill="white"/>
<path fill-rule="evenodd" clip-rule="evenodd" d="M16.0248 28.3757L16 22.6689L23.5162 18.4295L16.0248 28.3757Z" fill="#C0CBF6"/>
</svg>
