<svg width="32" height="33" viewBox="0 0 32 33" fill="none" xmlns="http://www.w3.org/2000/svg">
<path d="M31.5177 20.3705C29.3808 28.942 20.6992 34.1584 12.1267 32.021C3.55778 29.8841 -1.65868 21.202 0.479177 12.6312C2.61515 4.0587 11.2967 -1.15814 19.8666 0.978775C28.4385 3.11569 33.6546 11.7987 31.5175 20.3706L31.5176 20.3705H31.5177Z" fill="#F3BA2F"/>
<path fill-rule="evenodd" clip-rule="evenodd" d="M16.0002 10.6547L11.8571 14.7978L11.8571 14.7976L9.44656 12.387L16.0002 5.83337L22.5559 12.3889L20.1452 14.7996L16.0002 10.6547ZM7.74425 14.0889L5.3335 16.5L7.74408 18.9103L10.1548 16.4995L7.74425 14.0889ZM11.8571 18.2025L16.0002 22.3454L20.1451 18.2006L22.5571 20.6099L22.5559 20.6112L16.0002 27.1667L9.44656 20.6131L9.44315 20.6097L11.8571 18.2025ZM24.2562 14.0903L21.8455 16.5011L24.2562 18.9116L26.6668 16.5009L24.2562 14.0903Z" fill="white"/>
<path d="M18.4451 16.4988H18.4462L16.0002 14.0526L14.1922 15.8601V15.8601L13.9845 16.0678L13.5561 16.4963L13.5527 16.4996L13.5561 16.5031L16.0002 18.9475L18.4463 16.5013L18.4475 16.5L18.4453 16.4988" fill="white"/>
</svg>
