<svg width="32" height="32" viewBox="0 0 32 32" fill="none" xmlns="http://www.w3.org/2000/svg">
<circle cx="16" cy="16" r="16" fill="#8247E5"/>
<path d="M20.8005 12.7865C20.4594 12.5902 20.0207 12.5902 19.6308 12.7865L16.9015 14.4055L15.0494 15.4357L12.3689 17.0547C12.0277 17.251 11.589 17.251 11.1991 17.0547L9.10341 15.7792C8.76224 15.5829 8.51855 15.1904 8.51855 14.7489V12.2959C8.51855 11.9034 8.7135 11.5109 9.10341 11.2656L11.1991 10.0391C11.5403 9.84287 11.9789 9.84287 12.3689 10.0391L14.4646 11.3147C14.8058 11.5109 15.0494 11.9034 15.0494 12.3449V13.9639L16.9015 12.8846V11.2166C16.9015 10.8241 16.7065 10.4316 16.3166 10.1863L12.4176 7.88046C12.0764 7.68422 11.6378 7.68422 11.2479 7.88046L7.25136 10.2354C6.86146 10.4316 6.6665 10.8241 6.6665 11.2166V15.8282C6.6665 16.2207 6.86146 16.6132 7.25136 16.8585L11.1991 19.1643C11.5403 19.3606 11.9789 19.3606 12.3689 19.1643L15.0494 17.5944L16.9015 16.5151L19.5821 14.9451C19.9233 14.7489 20.3619 14.7489 20.7518 14.9451L22.8475 16.1717C23.1887 16.3679 23.4324 16.7604 23.4324 17.2019V19.6549C23.4324 20.0474 23.2374 20.4399 22.8475 20.6852L20.8005 21.9117C20.4594 22.108 20.0207 22.108 19.6308 21.9117L17.5351 20.6852C17.1939 20.489 16.9502 20.0965 16.9502 19.6549V18.085L15.0982 19.1643V20.7833C15.0982 21.1758 15.2931 21.5683 15.683 21.8136L19.6308 24.1194C19.972 24.3157 20.4106 24.3157 20.8005 24.1194L24.7483 21.8136C25.0895 21.6174 25.3332 21.2249 25.3332 20.7833V16.1226C25.3332 15.7301 25.1382 15.3376 24.7483 15.0923L20.8005 12.7865Z" fill="#EDF0F4"/>
</svg>
