<svg class="icon inline-flex h-[68px] w-[68px]" width="72" height="72" viewBox="0 0 72 72" fill="none" xmlns="http://www.w3.org/2000/svg"><rect width="72" height="72" rx="24" fill="#00CB4C"></rect><rect x="0.5" y="0.5" width="71" height="71" rx="23.5" stroke="#526279" stroke-opacity="0.1"></rect><path d="M31.9746 34.3196C30.222 34.3196 28.6181 33.8501 27.1628 32.9112C25.7232 31.9724 24.5653 30.7127 23.689 29.1323C22.8127 27.5518 22.3746 25.7836 22.3746 23.8276C22.3746 21.9186 22.8127 20.1817 23.689 18.6169C24.5653 17.0521 25.731 15.8081 27.1863 14.8848C28.6416 13.9616 30.2377 13.5 31.9746 13.5C33.7271 13.5 35.331 13.9616 36.7863 14.8848C38.2416 15.7924 39.4073 17.0286 40.2836 18.5934C41.1599 20.1582 41.598 21.8873 41.598 23.7807C41.598 25.7523 41.1599 27.5362 40.2836 29.1323C39.423 30.7127 38.265 31.9724 36.8098 32.9112C35.3545 33.8501 33.7428 34.3196 31.9746 34.3196ZM16.577 56.3362C15.1531 56.3362 14.0342 56.0076 13.2205 55.3504C12.4068 54.6932 12 53.7934 12 52.6511C12 51.1489 12.4694 49.5763 13.4083 47.9333C14.3472 46.2746 15.6851 44.7254 17.422 43.2858C19.1746 41.8462 21.2792 40.6804 23.7359 39.7885C26.1927 38.8809 28.9389 38.4271 31.9746 38.4271C34.1183 38.4271 36.1056 38.6775 37.9364 39.1782C39.7829 39.6633 41.4416 40.3127 42.9125 41.1264C43.4288 43.2545 44.532 44.9993 46.222 46.3606V54.5289C46.222 55.1548 46.3394 55.7572 46.5741 56.3362H16.577ZM52.6298 30.165C53.9912 30.165 55.2274 30.4936 56.3384 31.1509C57.4494 31.8081 58.3335 32.6922 58.9907 33.8032C59.6636 34.9142 60 36.1425 60 37.4883C60 38.9748 59.5775 40.3127 58.7325 41.502C57.9032 42.6912 56.7218 43.6457 55.1883 44.3655L57.5589 46.7362C57.778 46.9709 57.8875 47.2291 57.8875 47.5108C57.8875 47.7924 57.7858 48.035 57.5824 48.2384L55.0474 50.7264L56.7609 52.5103C56.9643 52.7137 57.0738 52.9562 57.0895 53.2379C57.1051 53.5196 57.0034 53.7621 56.7843 53.9655L53.3809 57.3924C53.1619 57.5958 52.9271 57.6897 52.6768 57.6741C52.4264 57.6741 52.2152 57.5958 52.043 57.4394L50.0714 55.5616C49.7741 55.2643 49.6254 54.9201 49.6254 54.5289V44.2716C48.2954 43.677 47.2313 42.7773 46.4332 41.5724C45.6509 40.3518 45.2597 38.9905 45.2597 37.4883C45.2597 36.1425 45.5883 34.9142 46.2455 33.8032C46.9027 32.6922 47.7868 31.8081 48.8978 31.1509C50.0088 30.4936 51.2528 30.165 52.6298 30.165ZM52.6064 33.498C52.0117 33.498 51.4954 33.7171 51.0572 34.1553C50.6347 34.5778 50.4235 35.0863 50.4235 35.6809C50.4235 36.2756 50.6425 36.7919 51.0807 37.2301C51.5188 37.6526 52.0274 37.8638 52.6064 37.8638C53.201 37.8638 53.7095 37.6526 54.132 37.2301C54.5702 36.7919 54.7892 36.2756 54.7892 35.6809C54.7892 35.0863 54.5702 34.5778 54.132 34.1553C53.7095 33.7171 53.201 33.498 52.6064 33.498Z" fill="#F9FBFC"></path></svg>